<svg width="30" height="30" viewBox="0 0 20 20" xmlns="http://www.w3.org/2000/svg" xmlns:xlink="http://www.w3.org/1999/xlink"><title>linkedin [#161]</title><desc>Created with Sketch.</desc><defs/><g id="Page-1" stroke="none" stroke-width="1" fill="none" fill-rule="evenodd"><g id="Dribbble-Light-Preview" transform="translate(-180.000000, -7479.000000)" fill="#000"><g id="icons" transform="translate(56.000000, 160.000000)"><path d="M144 7339h-4V7332.001C140 7330.081 139.153 7329.01 137.634 7329.01 135.981 7329.01 135 7330.126 135 7332.001V7339h-4v-13h4V7327.462S136.255 7325.26 139.083 7325.26C141.912 7325.26 144 7326.986 144 7330.558V7339zM126.442 7323.921C125.093 7323.921 124 7322.819 124 7321.46 124 7320.102 125.093 7319 126.442 7319 127.79 7319 128.883 7320.102 128.883 7321.46 128.884 7322.819 127.79 7323.921 126.442 7323.921zM124 7339h5v-13h-5v13z" id="linkedin-[#161]"/></g></g></g></svg>