<svg width="30" height="30" viewBox="0 -2 20 20" xmlns="http://www.w3.org/2000/svg" xmlns:xlink="http://www.w3.org/1999/xlink"><title>twitter [#154]</title><desc>Created with Sketch.</desc><defs/><g id="Page-1" stroke="none" stroke-width="1" fill="none" fill-rule="evenodd"><g id="Dribbble-Light-Preview" transform="translate(-60.000000, -7521.000000)" fill="#000"><g id="icons" transform="translate(56.000000, 160.000000)"><path d="M10.29 7377C17.837 7377 21.965 7370.84365 21.965 7365.50546 21.965 7365.33021 21.965 7365.15595 21.953 7364.98267 22.756 7364.41163 23.449 7363.70276 24 7362.8915 23.252 7363.21837 22.457 7363.433 21.644 7363.52751 22.5 7363.02244 23.141 7362.2289 23.448 7361.2926 22.642 7361.76321 21.761 7362.095 20.842 7362.27321 19.288 7360.64674 16.689 7360.56798 15.036 7362.09796 13.971 7363.08447 13.518 7364.55538 13.849 7365.95835 10.55 7365.79492 7.476 7364.261 5.392 7361.73762 4.303 7363.58363 4.86 7365.94457 6.663 7367.12996 6.01 7367.11125 5.371 7366.93797 4.8 7366.62489V7366.67608C4.801 7368.5989 6.178 7370.2549 8.092 7370.63591 7.488 7370.79836 6.854 7370.82199 6.24 7370.70483 6.777 7372.35099 8.318 7373.47829 10.073 7373.51078 8.62 7374.63513 6.825 7375.24554 4.977 7375.24358 4.651 7375.24259 4.325 7375.22388 4 7375.18549 5.877 7376.37088 8.06 7377 10.29 7376.99705" id="twitter-[#154]"/></g></g></g></svg>